<svg width="310" height="86" viewBox="0 0 310 86" fill="none" xmlns="http://www.w3.org/2000/svg">
<g clip-path="url(#clip0_967_7)">
<path d="M54.5025 7.295H70.2107L89.0448 61.2185V62H75.4467L72.2426 51.606H51.9236L48.7194 62H35.7465V61.2185L54.5025 7.295ZM61.9268 19.5645L55.284 40.8213H68.8821L62.2394 19.5645H61.9268ZM111.564 80.5997C106.015 80.5997 101.56 79.193 98.2 76.4578C94.8395 73.7225 93.0421 70.1276 92.9639 65.5168H104.765C105.077 68.3302 107.812 70.2839 111.564 70.2839C116.643 70.2839 119.535 67.6268 119.535 63.7975V58.0925H119.222C116.643 61.1403 113.048 62.7034 108.359 62.7034C103.28 62.7034 99.2941 60.7496 96.2462 56.8421C93.2765 52.8564 91.7917 47.7767 91.7917 41.6028C91.7917 35.3508 93.2765 30.2711 96.2462 26.3636C99.2941 22.3779 103.28 20.4242 108.359 20.4242C113.048 20.4242 116.643 21.9872 119.222 25.035H119.535L120.785 21.1275H131.57V63.9538C131.57 69.0335 129.694 73.0192 125.943 76.067C122.192 79.1149 117.425 80.5997 111.564 80.5997ZM120.082 41.6028C120.082 35.3508 117.581 30.9744 112.033 30.9744C106.484 30.9744 103.983 35.3508 103.983 41.6028C103.983 48.6363 106.64 52.1531 112.033 52.1531C117.425 52.1531 120.082 48.6363 120.082 41.6028ZM156.908 62.7034C150.656 62.7034 145.732 60.7496 142.059 56.7639C138.464 52.7783 136.667 47.6985 136.667 41.6028C136.667 35.5071 138.386 30.4274 141.903 26.4417C145.42 22.4561 150.343 20.4242 156.673 20.4242C162.691 20.4242 167.458 22.2998 170.975 26.1291C174.491 29.8803 176.211 34.6475 176.211 40.3524V44.807H148.936C149.015 49.8086 151.594 52.9346 156.908 52.9346C160.659 52.9346 163.003 51.606 164.019 48.8708H175.664C175.117 52.7783 173.163 56.0606 169.802 58.7177C166.52 61.3748 162.222 62.7034 156.908 62.7034ZM149.015 37.2264H163.941C163.707 33.0845 161.284 30.2711 156.673 30.2711C151.75 30.2711 149.249 33.0845 149.015 37.2264ZM194.081 62H182.046V21.1275H192.83L193.768 25.035H194.081C196.66 21.9872 200.411 20.4242 205.256 20.4242C214.4 20.4242 220.417 26.1291 220.417 35.1164V62H208.382V38.8676C208.382 33.866 206.116 31.3652 201.505 31.3652C197.129 31.3652 194.081 34.413 194.081 39.3365V62ZM246.055 62.7034C239.647 62.7034 234.645 60.7496 230.972 56.9202C227.299 53.0127 225.501 47.8548 225.501 41.5247C225.501 35.1945 227.299 30.1148 230.816 26.2854C234.332 22.3779 239.334 20.4242 245.742 20.4242C251.604 20.4242 256.136 21.9872 259.34 25.1132C262.545 28.2392 264.342 32.303 264.655 37.2264H252.541C252.151 33.5534 249.572 30.9744 245.742 30.9744C240.428 30.9744 237.771 34.4912 237.771 41.5247C237.771 48.6363 240.428 52.1531 245.742 52.1531C249.572 52.1531 252.151 49.5741 252.541 45.9011H264.655C264.342 50.8245 262.623 54.8883 259.419 58.0143C256.214 61.1403 251.76 62.7034 246.055 62.7034ZM288.423 79.8964H275.372V79.1149L281.233 62H279.201L266.228 21.909V21.1275H278.576L286.86 50.1212H287.172L296.003 21.1275H308.976V21.909L288.423 79.8964Z" fill="black"/>
<path d="M3.72512 72.301L26.9649 7.00002L40.4648 7.00073L15.2092 77.3783L10.2252 83.3009L3.72516 83.301L3.72512 72.301Z" fill="black"/>
<path d="M4.2251 72.2993H291.085L287.271 83.2993H4.2251V72.2993Z" fill="black"/>
</g>
<defs>
<clipPath id="clip0_967_7">
<rect width="310" height="86" fill="white"/>
</clipPath>
</defs>
</svg>
