<svg width="319" height="86" viewBox="0 0 319 86" fill="none" xmlns="http://www.w3.org/2000/svg">
<path d="M4 72L26.9649 7.0002L40.4649 7.00091L15.2093 77.3785L11 83.0002L4 83L4 72Z" fill="black"/>
<path d="M4 72H314L309.879 83H4V72Z" fill="black"/>
<g clip-path="url(#clip0_1314_2)">
<path d="M297.299 64.445H258.224L276.935 13.0391H316.01L312.268 23.3202H285.462L282.014 32.7936H306.397L302.655 43.0748H278.272L274.209 54.2372H301.015L297.299 64.445Z" fill="black"/>
<path d="M201.34 64.445H189.461L208.172 13.0391H221.613L228.429 36.6123H228.742L252.717 13.0391H266.003L247.292 64.445H235.414L247.495 31.2514H247.182L221.868 55.9263H221.087L213.814 31.0311H213.502L201.34 64.445Z" fill="black"/>
<path d="M187.842 31.9124H178.621L178.888 31.178L187.913 13.0391H201.12L200.853 13.7734L187.842 31.9124Z" fill="black"/>
<path d="M153.202 65.1059C144.136 65.1059 141.316 60.1856 143.989 52.8419L150.244 35.6577H143.601L147.103 26.0374H154.292L157.206 18.0328L168.661 15.9766H169.442L165.78 26.0374H175.549L172.048 35.6577H162.279L157.013 50.1248C155.704 53.7232 156.705 55.2653 160.378 55.2653C161.707 55.2653 163.116 55.045 164.526 54.6044H165.308L161.887 64.0043C159.509 64.7387 156.64 65.1059 153.202 65.1059Z" fill="black"/>
<path d="M137.88 22.1452C133.191 22.1452 131.494 19.7218 133.017 15.5359C134.514 11.4234 137.975 9 142.664 9C147.275 9 149.05 11.4234 147.553 15.5359C146.056 19.6484 142.491 22.1452 137.88 22.1452ZM128.423 64.4449H116.388L130.367 26.0374H142.402L128.423 64.4449Z" fill="black"/>
<path d="M98.8924 64.4451H83.4969L84.2359 26.772L84.5032 26.0376H96.8509L95.0313 53.7968H95.3439L113.497 26.0376H125.688L125.421 26.772L98.8924 64.4451Z" fill="black"/>
<path d="M40.2755 64.4449H28.2404L42.2196 26.0374H53.0043L52.6057 29.7092H52.9183C56.5397 26.8452 60.8255 25.3765 65.6708 25.3765C74.8143 25.3765 78.8806 30.7374 75.8068 39.1826L66.6121 64.4449H54.577L62.4887 42.7076C64.1994 38.0076 62.7884 35.6576 58.1775 35.6576C53.8011 35.6576 49.7108 38.5217 48.0269 43.1482L40.2755 64.4449Z" fill="black"/>
</g>
<defs>
<clipPath id="clip0_1314_2">
<rect width="269.059" height="59.7067" fill="white" transform="matrix(1 0 -0.34202 0.939693 48.4209 9)"/>
</clipPath>
</defs>
</svg>
